<svg version="1.1" id="Layer_1" xmlns="http://www.w3.org/2000/svg" xmlns:xlink="http://www.w3.org/1999/xlink" x="0px" y="0px"
	 width="100%" viewBox="0 0 396 106" enable-background="new 0 0 396 106" xml:space="preserve">
<path fill="#FDFEFE" opacity="1.000000" stroke="none" 
	d="
M316.000000,1.000000 
	C342.988129,1.000000 369.976227,1.000000 396.982178,1.000000 
	C396.982178,36.305889 396.982178,71.611794 396.982178,106.958847 
	C265.085541,106.958847 133.171066,106.958847 1.128295,106.958847 
	C1.128295,71.768166 1.128295,36.535702 1.128295,1.000000 
	C102.354027,1.000000 203.708359,1.000000 305.613403,1.440246 
	C306.164124,3.824738 306.164124,5.768983 306.164124,7.975681 
	C309.482666,7.975681 312.221558,7.975681 315.083649,7.975681 
	C315.405914,5.522646 315.702942,3.261323 316.000000,1.000000 
M62.856171,15.885194 
	C60.998348,17.126999 59.140526,18.368805 57.292263,19.604221 
	C51.966358,13.292636 48.087444,13.091062 40.240074,18.666864 
	C39.097389,13.069171 35.284523,15.707039 32.240891,15.700190 
	C32.240891,26.996105 32.240891,37.926567 32.240891,48.920895 
	C34.921764,48.920895 37.317299,48.920895 40.090771,48.920895 
	C40.090771,46.813347 40.079929,45.011948 40.092842,43.210716 
	C40.128654,38.215591 39.820641,33.183311 40.341034,28.238600 
	C40.685562,24.964930 42.033043,21.435553 46.400070,21.615545 
	C50.606121,21.788904 50.465797,25.327118 50.793736,28.257313 
	C50.978035,29.904043 50.875957,31.584398 50.878212,33.249638 
	C50.885345,38.515537 50.880848,43.781460 50.880848,48.842705 
	C54.020802,48.842705 56.420937,48.842705 59.055393,48.842705 
	C59.055393,42.643154 58.876282,36.822254 59.141659,31.021688 
	C59.251099,28.629557 59.850502,25.983080 61.109978,24.018251 
	C61.940678,22.722336 64.424797,21.740129 66.020363,21.921497 
	C67.252228,22.061522 68.752998,24.063679 69.235718,25.533091 
	C69.889786,27.524096 69.800468,29.795879 69.826088,31.949644 
	C69.892883,37.563095 69.848572,43.177868 69.848572,48.963772 
	C72.799408,48.963772 75.195984,48.963772 78.002892,48.963772 
	C78.002892,41.409958 78.075172,34.116257 77.985245,26.824558 
	C77.863159,16.925344 73.413925,13.481794 62.856171,15.885194 
M8.922676,38.273285 
	C7.370256,57.383862 7.201504,76.477852 10.097252,95.482880 
	C10.552414,98.470154 12.035442,101.300804 13.226619,104.732231 
	C14.728855,103.454994 15.241998,103.210999 15.440187,102.810959 
	C15.879246,101.924728 16.413967,100.974373 16.467171,100.025360 
	C17.180670,87.298424 18.103180,74.573524 18.384998,61.835091 
	C18.615345,51.423389 18.059040,40.994270 17.850615,30.572887 
	C17.747692,25.426800 17.896832,20.254997 17.379480,15.150826 
	C17.229889,13.674977 15.163737,12.393390 13.976224,11.022743 
	C12.973548,12.360891 11.267854,13.610514 11.086328,15.052066 
	C10.154963,22.448309 9.615773,29.893936 8.922676,38.273285 
M166.803818,21.943806 
	C168.939713,21.647804 171.072632,21.132999 173.212143,21.104118 
	C176.963837,21.053474 178.846939,23.008335 178.860901,26.526428 
	C173.791260,27.608723 168.974625,28.158915 164.515076,29.725559 
	C160.187134,31.245966 158.081833,34.915092 157.790573,39.683125 
	C157.507462,44.317806 159.659546,47.972313 163.474960,49.273735 
	C169.239212,51.239895 174.937119,49.837399 179.653992,44.959030 
	C180.512527,51.972252 184.849808,48.936180 188.310471,48.863976 
	C188.147461,45.975376 187.932190,43.508961 187.885132,41.039333 
	C187.793335,36.221867 188.000336,31.390209 187.709564,26.587070 
	C187.304062,19.888517 184.688034,16.026163 179.156097,15.423631 
	C174.308655,14.895655 169.200790,15.203547 164.406891,16.149897 
	C158.950470,17.227028 158.858536,18.188675 161.450638,23.828974 
	C162.959290,23.256901 164.483231,22.679028 166.803818,21.943806 
M114.987343,30.601807 
	C114.938301,20.613520 112.840149,16.249931 106.398232,15.401601 
	C101.722252,14.785828 96.730728,15.093253 92.091866,16.034126 
	C86.022850,17.265070 86.086121,17.768559 88.601830,23.720709 
	C101.022331,19.453505 106.683784,20.439346 105.846710,26.378212 
	C100.782684,27.645344 95.667633,28.425869 90.954453,30.246645 
	C86.347427,32.026417 84.211166,37.448502 85.177635,42.371243 
	C86.013161,46.627018 89.648468,50.106812 94.511818,49.769638 
	C98.748367,49.475922 102.882736,47.708443 107.079590,46.587540 
	C108.099937,51.460175 112.277397,48.860085 114.987381,48.824097 
	C114.987381,42.838467 114.987381,37.204094 114.987343,30.601807 
M258.828583,32.443363 
	C258.646484,30.968029 258.587189,29.465071 258.262390,28.021852 
	C256.179047,18.764267 249.971375,14.298360 240.088699,14.875360 
	C231.866211,15.355432 225.930740,21.084785 225.041031,29.400476 
	C223.950790,39.590088 228.180710,46.843098 236.701309,49.394299 
	C247.900452,52.747494 256.735199,46.301888 258.828583,32.443363 
M277.927032,23.127981 
	C283.954956,20.482161 286.888702,22.068718 287.095978,28.460167 
	C287.315308,35.224274 287.145172,42.001007 287.145172,48.950912 
	C290.382233,48.950912 292.943512,48.950912 295.269897,48.950912 
	C295.269897,40.392834 296.005127,32.054737 295.065216,23.909946 
	C294.106262,15.600257 285.940948,12.262525 278.464661,16.212437 
	C277.011963,16.979927 275.679443,17.974852 274.119751,18.975012 
	C272.960297,13.238325 268.966003,15.590755 265.536255,15.560476 
	C265.536255,26.904652 265.536255,37.915054 265.536255,48.895538 
	C268.491699,48.895538 271.058289,48.895538 273.963257,48.895538 
	C273.963257,43.251488 273.575958,37.917587 274.110352,32.677692 
	C274.424835,29.594030 276.202789,26.659634 277.927032,23.127981 
M386.269836,17.126110 
	C380.740021,16.448832 375.200653,15.175790 369.683167,15.264512 
	C364.336823,15.350480 360.624512,19.408974 360.184204,23.879885 
	C359.739868,28.391340 362.650421,32.489033 367.838776,34.255787 
	C370.180939,35.053349 372.843933,35.053944 375.036255,36.098438 
	C376.653900,36.869148 377.744843,38.745304 379.070465,40.128929 
	C377.430634,41.153442 375.755524,43.086243 374.157928,43.024147 
	C370.124603,42.867363 366.126160,41.812721 361.708984,41.047752 
	C361.243774,42.613945 360.698517,44.449703 360.175629,46.210094 
	C365.701538,50.550385 377.891968,51.414505 383.398895,47.947060 
	C386.802551,45.803932 388.394012,42.746746 387.988647,38.677326 
	C387.607239,34.848625 385.818390,32.042835 382.107300,30.807827 
	C378.969330,29.763544 375.658417,29.195578 372.599182,27.977133 
	C371.172394,27.408855 370.159851,25.800436 368.959564,24.663481 
	C370.428650,23.627064 371.883148,21.744259 373.369690,21.718582 
	C377.272491,21.651171 381.189270,22.392883 385.473389,22.852192 
	C385.878113,21.225283 386.309052,19.493092 386.269836,17.126110 
M348.630585,15.500999 
	C345.333191,15.323846 342.012177,14.811913 338.743622,15.042861 
	C332.880035,15.457168 328.491943,18.378473 325.761932,23.739319 
	C321.916840,31.289711 324.445038,41.503212 329.378326,45.720486 
	C335.538025,50.986122 345.833313,51.525631 353.014832,46.713390 
	C352.449707,45.095963 351.868134,43.431549 351.214996,41.562210 
	C345.355408,42.995972 339.434937,45.512161 335.007874,39.591431 
	C331.822510,35.331387 331.853729,30.308371 334.346100,25.927715 
	C338.509583,18.610035 345.278015,22.180714 351.404785,23.025955 
	C351.710602,22.013369 351.944580,21.242960 352.175781,20.471720 
	C352.454987,19.540373 352.731903,18.608341 353.093048,17.397394 
	C351.777740,16.842829 350.590973,16.342453 348.630585,15.500999 
M124.314812,41.961620 
	C130.483856,50.529835 140.101669,52.441788 151.053802,47.078434 
	C150.449600,45.311771 149.833145,43.509342 149.188797,41.625355 
	C143.201019,42.963959 137.385788,45.468479 132.868759,39.537857 
	C130.223587,36.064888 129.930786,28.947540 132.512009,25.378574 
	C137.035690,19.123863 143.105927,21.871347 149.244446,23.176058 
	C149.866043,21.251539 150.449158,19.446175 151.014191,17.696798 
	C143.512390,13.518008 133.133942,13.945197 127.828659,18.484039 
	C121.657425,23.763723 120.251076,32.048038 124.314812,41.961620 
M74.236343,77.158051 
	C74.816826,78.966324 75.771683,80.748604 75.899437,82.588310 
	C76.160797,86.352112 75.977806,90.146767 75.977806,94.036491 
	C77.869682,94.036491 79.281540,94.036491 80.777649,94.036491 
	C80.859711,93.100121 80.930595,92.451958 80.971153,91.801903 
	C81.197441,88.174881 80.772774,84.330482 81.893188,81.006126 
	C82.508453,79.180588 85.723129,78.231117 87.765762,76.886635 
	C88.633553,78.625458 90.074120,80.308105 90.251320,82.114670 
	C90.634209,86.018402 90.369141,89.985695 90.369141,94.318489 
	C92.394165,94.197624 93.781235,94.114830 95.417580,94.017166 
	C95.417580,88.819679 95.654411,83.999947 95.359566,79.212959 
	C94.961998,72.758049 89.441025,70.168121 83.938133,73.650818 
	C82.982292,74.255753 82.124596,75.015747 81.247139,75.684624 
	C75.554443,70.803268 73.483795,70.799850 67.574448,74.717827 
	C65.122063,73.902237 63.566425,73.384880 61.653313,72.748634 
	C61.653313,80.477806 61.653313,87.213089 61.653313,94.335129 
	C63.392483,94.207199 64.776482,94.105400 66.622269,93.969627 
	C66.622269,90.111626 66.365173,86.612244 66.690720,83.167923 
	C67.055237,79.311279 68.860962,76.499176 74.236343,77.158051 
M306.894501,84.807030 
	C307.170929,83.358498 306.964264,81.420029 307.828583,80.567795 
	C309.417786,79.000847 311.637360,78.073189 313.594177,76.879051 
	C314.465454,78.601257 315.878387,80.259171 316.092041,82.059425 
	C316.500763,85.503540 316.213074,89.028793 316.254486,92.519897 
	C316.259827,92.969963 316.503204,93.417213 316.679993,94.013107 
	C318.169556,94.013107 319.567413,94.013107 321.232758,94.013107 
	C321.232758,91.723259 321.145538,89.732765 321.256409,87.753372 
	C321.376465,85.609207 321.039917,83.068878 322.071075,81.441986 
	C323.304535,79.495888 325.775879,78.334389 327.711060,76.833061 
	C328.797913,78.738609 330.499359,80.543686 330.831055,82.572685 
	C331.360565,85.812119 330.967468,89.200485 330.997711,92.525574 
	C331.001923,92.988487 331.195465,93.449669 331.386169,94.281830 
	C332.813721,94.176117 334.193512,94.073944 335.715912,93.961212 
	C335.715912,88.706024 335.944733,83.878029 335.658691,79.080734 
	C335.290497,72.905731 329.864410,70.245216 324.585297,73.463974 
	C323.467285,74.145638 322.508453,75.088425 321.477936,75.909592 
	C316.308167,70.886856 314.032410,70.747665 307.914734,74.816597 
	C305.980927,74.107162 304.258423,73.475258 302.176941,72.711662 
	C302.176941,80.420158 302.176941,87.168678 302.176941,94.276718 
	C303.842957,94.186447 305.245819,94.110443 306.890503,94.021324 
	C306.890503,90.998871 306.890503,88.352859 306.894501,84.807030 
M210.479584,24.833452 
	C213.808289,23.557301 217.137009,22.281147 220.660400,20.930361 
	C220.660400,19.245140 220.660400,17.163630 220.660400,13.632758 
	C215.011688,15.993489 210.140106,18.029436 205.254623,20.071192 
	C205.141312,18.965118 204.977875,17.369987 204.791748,15.553434 
	C202.252289,15.553434 199.845398,15.553434 197.250702,15.553434 
	C197.250702,26.877146 197.250702,37.927166 197.250702,48.949570 
	C205.823608,49.690594 205.823166,49.690594 205.824280,41.533009 
	C205.824585,39.368191 205.364639,37.071335 205.934845,35.068172 
	C206.893188,31.701353 208.507584,28.521267 210.479584,24.833452 
M306.192871,40.443550 
	C306.192871,43.222603 306.192871,46.001656 306.192871,48.984062 
	C309.528809,48.984062 312.275848,48.984062 315.108612,48.984062 
	C315.108612,37.678211 315.108612,26.643953 315.108612,15.675522 
	C311.973572,15.675522 309.246704,15.675522 306.192932,15.675522 
	C306.192932,23.870279 306.192932,31.663124 306.192871,40.443550 
M105.976646,91.477089 
	C111.298965,95.941345 114.245964,96.059723 120.167206,92.726807 
	C122.818474,93.491669 124.600258,94.005692 126.499535,94.553612 
	C126.499535,86.816116 126.499535,80.080162 126.499535,72.453918 
	C124.339485,73.306046 122.809158,73.909744 120.704849,74.739876 
	C115.651588,71.312424 111.923546,71.062180 107.541870,74.405357 
	C102.432129,78.304039 101.664101,84.474174 105.976646,91.477089 
M276.810730,92.870232 
	C281.572937,95.391960 286.238190,95.673546 290.957916,91.475540 
	C289.550446,90.530914 288.019012,90.099426 286.457947,89.866280 
	C283.749390,89.461754 281.022491,89.179924 278.303314,88.846642 
	C278.358124,88.316467 278.412964,87.786285 278.467804,87.256111 
	C283.725616,85.376923 288.983429,83.497734 294.174561,81.642380 
	C292.640594,74.488770 287.681274,71.073509 281.499939,72.519630 
	C271.643799,74.825493 269.050537,84.555656 276.810730,92.870232 
M52.457226,77.188629 
	C47.356155,71.323868 41.443729,70.481552 35.888378,74.828148 
	C31.392937,78.345459 30.386944,85.357887 33.698887,90.090363 
	C37.402157,95.382004 44.124714,96.226219 51.719498,91.261467 
	C49.324841,90.560066 47.900471,89.918365 46.423866,89.758194 
	C43.558086,89.447357 40.053886,91.452141 38.034405,87.188316 
	C42.514378,85.659721 46.697678,84.066772 50.982765,82.825104 
	C54.144253,81.909004 54.436474,80.300919 52.457226,77.188629 
M220.596085,73.922554 
	C218.579636,78.262466 216.563187,82.602386 214.546738,86.942314 
	C209.606796,82.787758 211.784286,73.160255 201.933716,72.942131 
	C203.518448,76.309830 204.703827,79.037949 206.062851,81.676636 
	C209.722382,88.782051 214.406967,95.786911 206.820129,103.337433 
	C210.581177,104.925400 212.283142,103.810478 213.421005,100.704086 
	C214.844315,96.818466 216.678055,93.083008 218.339294,89.284775 
	C220.617844,84.075104 222.900803,78.867363 225.449814,73.046951 
	C223.378571,73.202408 222.260178,73.286346 220.596085,73.922554 
M232.356125,93.437469 
	C239.973404,95.559341 243.993408,94.607109 245.514023,89.956917 
	C247.594818,83.593613 242.442871,82.648232 238.429977,80.729561 
	C237.374023,80.224686 236.846130,78.615326 236.075745,77.513161 
	C237.367538,77.019974 238.627167,76.263977 239.959351,76.100914 
	C241.581436,75.902367 243.264587,76.202820 245.546555,76.319374 
	C244.901749,74.751312 244.884521,74.541283 244.775848,74.469284 
	C239.513535,70.983192 234.042130,71.540047 231.715530,75.786926 
	C229.409744,79.995811 231.187531,82.622948 238.045609,85.801430 
	C239.251343,86.360245 239.971161,87.967468 240.915375,89.090515 
	C239.359863,89.695862 237.844330,90.524773 236.232117,90.813148 
	C235.414215,90.959450 234.445038,89.904282 233.501907,89.808289 
	C232.597519,89.716248 231.638367,90.162140 230.703308,90.371613 
	C231.032211,91.274879 231.361115,92.178146 232.356125,93.437469 
M185.713989,73.012817 
	C180.129684,77.664825 180.679398,82.142029 187.198563,84.969536 
	C188.110260,85.364952 189.272888,85.416107 189.963303,86.028221 
	C190.830139,86.796761 192.020782,88.173126 191.807816,88.932892 
	C191.558228,89.823242 190.004623,90.750732 188.915131,90.894882 
	C187.716629,91.053444 186.411942,90.122070 185.136414,90.067833 
	C183.905930,90.015518 182.653641,90.476082 180.101944,90.959137 
	C187.420425,95.921585 193.546005,95.577271 196.077774,91.203362 
	C198.570267,86.897331 196.988297,84.463577 189.839752,80.856255 
	C188.669174,80.265541 188.053314,78.575539 187.181091,77.393593 
	C188.664825,76.968636 190.125458,76.385979 191.638962,76.164192 
	C193.079727,75.953072 194.575699,76.118721 196.047409,76.118721 
	C196.092026,75.204857 196.136658,74.290993 196.181274,73.377129 
	C192.932571,73.155861 189.683884,72.934593 185.713989,73.012817 
M155.840454,88.249695 
	C155.840454,77.340652 155.840454,66.431610 155.840454,55.231972 
	C154.065033,55.231972 152.694809,55.231972 151.146576,55.231972 
	C151.146576,68.234848 151.146576,81.074745 151.146576,94.283577 
	C152.820633,94.180214 154.215485,94.094086 155.840195,93.993767 
	C155.840195,92.128708 155.840195,90.652397 155.840454,88.249695 
M256.053802,69.390137 
	C255.752640,70.574677 255.716553,71.935928 255.077209,72.895035 
	C254.410629,73.895004 253.162430,74.507278 252.168518,75.289032 
	C253.327972,76.134583 254.487427,76.980133 256.223297,78.246048 
	C256.223297,83.060257 256.223297,88.494820 256.223297,94.283211 
	C258.058655,94.130638 259.433899,94.016312 261.182678,93.870934 
	C261.182678,88.050293 261.182678,82.615585 261.182678,77.215622 
	C263.223297,77.045784 264.851776,76.910248 266.570465,76.767204 
	C267.830414,71.315346 263.042114,74.016251 260.982880,72.274193 
	C260.982880,69.893417 260.982880,67.128624 260.982880,64.289299 
	C259.159882,64.289299 257.774445,64.289299 256.053772,64.289299 
	C256.053772,65.885094 256.053772,67.189400 256.053802,69.390137 
M136.335464,74.077713 
	C136.335464,80.650269 136.335464,87.222824 136.335464,94.031563 
	C138.054840,94.031563 139.448166,94.031563 140.897217,94.031563 
	C140.897217,87.005951 140.897217,80.271263 140.897217,73.167282 
	C139.399612,73.239334 138.137451,73.300064 136.335464,74.077713 
M140.703781,63.609962 
	C139.154587,64.169548 137.605377,64.729134 136.056183,65.288719 
	C136.959457,66.239807 137.862717,67.190895 138.765991,68.141983 
	C139.589401,66.814331 140.412811,65.486687 140.703781,63.609962 
z"/>
<path fill="#308879" opacity="1.000000" stroke="none" 
	d="
M315.545898,1.000000 
	C315.702942,3.261323 315.405914,5.522646 315.083649,7.975681 
	C312.221558,7.975681 309.482666,7.975681 306.164124,7.975681 
	C306.164124,5.768983 306.164124,3.824738 306.082062,1.440246 
	C309.030609,1.000000 312.061188,1.000000 315.545898,1.000000 
z"/>
<path fill="#2B8676" opacity="1.000000" stroke="none" 
	d="
M63.202179,15.692232 
	C73.413925,13.481794 77.863159,16.925344 77.985245,26.824558 
	C78.075172,34.116257 78.002892,41.409958 78.002892,48.963772 
	C75.195984,48.963772 72.799408,48.963772 69.848572,48.963772 
	C69.848572,43.177868 69.892883,37.563095 69.826088,31.949644 
	C69.800468,29.795879 69.889786,27.524096 69.235718,25.533091 
	C68.752998,24.063679 67.252228,22.061522 66.020363,21.921497 
	C64.424797,21.740129 61.940678,22.722336 61.109978,24.018251 
	C59.850502,25.983080 59.251099,28.629557 59.141659,31.021688 
	C58.876282,36.822254 59.055393,42.643154 59.055393,48.842705 
	C56.420937,48.842705 54.020802,48.842705 50.880848,48.842705 
	C50.880848,43.781460 50.885345,38.515537 50.878212,33.249638 
	C50.875957,31.584398 50.978035,29.904043 50.793736,28.257313 
	C50.465797,25.327118 50.606121,21.788904 46.400070,21.615545 
	C42.033043,21.435553 40.685562,24.964930 40.341034,28.238600 
	C39.820641,33.183311 40.128654,38.215591 40.092842,43.210716 
	C40.079929,45.011948 40.090771,46.813347 40.090771,48.920895 
	C37.317299,48.920895 34.921764,48.920895 32.240891,48.920895 
	C32.240891,37.926567 32.240891,26.996105 32.240891,15.700190 
	C35.284523,15.707039 39.097389,13.069171 40.240124,18.666714 
	C48.087444,13.091062 51.966358,13.292636 57.292263,19.604221 
	C59.140526,18.368805 60.998348,17.126999 63.202179,15.692232 
z"/>
<path fill="#A5ECC3" opacity="1.000000" stroke="none" 
	d="
M8.931118,37.797798 
	C9.615773,29.893936 10.154963,22.448309 11.086328,15.052066 
	C11.267854,13.610514 12.973548,12.360891 13.976225,11.022743 
	C15.163737,12.393390 17.229889,13.674977 17.379480,15.150826 
	C17.896832,20.254997 17.747692,25.426800 17.850615,30.572887 
	C18.059040,40.994270 18.615345,51.423389 18.384998,61.835091 
	C18.103180,74.573524 17.180670,87.298424 16.467171,100.025360 
	C16.413967,100.974373 15.879246,101.924728 15.440187,102.810959 
	C15.241998,103.210999 14.728855,103.454994 13.226619,104.732231 
	C12.035442,101.300804 10.552414,98.470154 10.097252,95.482880 
	C7.201504,76.477852 7.370256,57.383862 8.931118,37.797798 
z"/>
<path fill="#308879" opacity="1.000000" stroke="none" 
	d="
M166.405487,22.022480 
	C164.483231,22.679028 162.959290,23.256901 161.450638,23.828974 
	C158.858536,18.188675 158.950470,17.227028 164.406891,16.149897 
	C169.200790,15.203547 174.308655,14.895655 179.156097,15.423631 
	C184.688034,16.026163 187.304062,19.888517 187.709564,26.587070 
	C188.000336,31.390209 187.793335,36.221867 187.885132,41.039333 
	C187.932190,43.508961 188.147461,45.975376 188.310471,48.863976 
	C184.849808,48.936180 180.512527,51.972252 179.653992,44.959030 
	C174.937119,49.837399 169.239212,51.239895 163.474960,49.273735 
	C159.659546,47.972313 157.507462,44.317806 157.790573,39.683125 
	C158.081833,34.915092 160.187134,31.245966 164.515076,29.725559 
	C168.974625,28.158915 173.791260,27.608723 178.860901,26.526428 
	C178.846939,23.008335 176.963837,21.053474 173.212143,21.104118 
	C171.072632,21.132999 168.939713,21.647804 166.405487,22.022480 
M171.591522,33.795235 
	C170.664749,34.132339 169.264008,34.204609 168.899948,34.856144 
	C167.802612,36.820004 167.108536,39.009201 166.257202,41.110523 
	C168.386017,41.773014 170.648315,43.255569 172.617157,42.935120 
	C177.391068,42.158096 179.052170,39.072422 178.645248,32.955044 
	C176.562973,33.172909 174.477768,33.391083 171.591522,33.795235 
z"/>
<path fill="#2F8879" opacity="1.000000" stroke="none" 
	d="
M114.987366,31.085762 
	C114.987381,37.204094 114.987381,42.838467 114.987381,48.824097 
	C112.277397,48.860085 108.099937,51.460175 107.079590,46.587540 
	C102.882736,47.708443 98.748367,49.475922 94.511818,49.769638 
	C89.648468,50.106812 86.013161,46.627018 85.177635,42.371243 
	C84.211166,37.448502 86.347427,32.026417 90.954453,30.246645 
	C95.667633,28.425869 100.782684,27.645344 105.846710,26.378212 
	C106.683784,20.439346 101.022331,19.453505 88.601830,23.720709 
	C86.086121,17.768559 86.022850,17.265070 92.091866,16.034126 
	C96.730728,15.093253 101.722252,14.785828 106.398232,15.401601 
	C112.840149,16.249931 114.938301,20.613520 114.987366,31.085762 
M106.199265,34.452877 
	C103.039474,32.297081 96.090416,33.320671 94.266907,36.564213 
	C93.521118,37.890789 93.308662,40.279102 94.035095,41.453663 
	C94.738449,42.590916 97.027428,43.436008 98.500862,43.280544 
	C103.083664,42.796989 106.091644,40.337673 106.199265,34.452877 
z"/>
<path fill="#2F8879" opacity="1.000000" stroke="none" 
	d="
M258.804504,32.864632 
	C256.735199,46.301888 247.900452,52.747494 236.701309,49.394299 
	C228.180710,46.843098 223.950790,39.590088 225.041031,29.400476 
	C225.930740,21.084785 231.866211,15.355432 240.088699,14.875360 
	C249.971375,14.298360 256.179047,18.764267 258.262390,28.021852 
	C258.587189,29.465071 258.646484,30.968029 258.804504,32.864632 
M235.805206,40.578861 
	C241.893097,45.613159 248.333130,43.520008 249.654419,35.826641 
	C250.113861,33.151577 249.671280,30.238024 249.206985,27.507124 
	C248.477036,23.213564 245.403427,21.403662 241.327347,21.605370 
	C237.212296,21.809006 234.238831,24.134832 234.083145,28.317457 
	C233.939758,32.169678 234.840347,36.060757 235.805206,40.578861 
z"/>
<path fill="#328A7A" opacity="1.000000" stroke="none" 
	d="
M277.624786,23.393044 
	C276.202789,26.659634 274.424835,29.594030 274.110352,32.677692 
	C273.575958,37.917587 273.963257,43.251488 273.963257,48.895538 
	C271.058289,48.895538 268.491699,48.895538 265.536255,48.895538 
	C265.536255,37.915054 265.536255,26.904652 265.536255,15.560476 
	C268.966003,15.590755 272.960297,13.238325 274.119751,18.975012 
	C275.679443,17.974852 277.011963,16.979927 278.464661,16.212437 
	C285.940948,12.262525 294.106262,15.600257 295.065216,23.909946 
	C296.005127,32.054737 295.269897,40.392834 295.269897,48.950912 
	C292.943512,48.950912 290.382233,48.950912 287.145172,48.950912 
	C287.145172,42.001007 287.315308,35.224274 287.095978,28.460167 
	C286.888702,22.068718 283.954956,20.482161 277.624786,23.393044 
z"/>
<path fill="#308879" opacity="1.000000" stroke="none" 
	d="
M386.504883,17.443504 
	C386.309052,19.493092 385.878113,21.225283 385.473389,22.852192 
	C381.189270,22.392883 377.272491,21.651171 373.369690,21.718582 
	C371.883148,21.744259 370.428650,23.627064 368.959564,24.663479 
	C370.159851,25.800436 371.172394,27.408855 372.599182,27.977133 
	C375.658417,29.195578 378.969330,29.763544 382.107300,30.807827 
	C385.818390,32.042835 387.607239,34.848625 387.988647,38.677326 
	C388.394012,42.746746 386.802551,45.803932 383.398895,47.947060 
	C377.891968,51.414505 365.701538,50.550385 360.175629,46.210094 
	C360.698517,44.449703 361.243774,42.613945 361.708984,41.047752 
	C366.126160,41.812721 370.124603,42.867363 374.157928,43.024147 
	C375.755524,43.086243 377.430634,41.153442 379.070465,40.128922 
	C377.744843,38.745304 376.653900,36.869148 375.036255,36.098438 
	C372.843933,35.053944 370.180939,35.053349 367.838776,34.255787 
	C362.650421,32.489033 359.739868,28.391340 360.184204,23.879885 
	C360.624512,19.408974 364.336823,15.350480 369.683167,15.264512 
	C375.200653,15.175790 380.740021,16.448832 386.504883,17.443504 
z"/>
<path fill="#308879" opacity="1.000000" stroke="none" 
	d="
M349.017395,15.671539 
	C350.590973,16.342453 351.777740,16.842829 353.093048,17.397394 
	C352.731903,18.608341 352.454987,19.540373 352.175781,20.471720 
	C351.944580,21.242960 351.710602,22.013369 351.404785,23.025955 
	C345.278015,22.180714 338.509583,18.610035 334.346100,25.927715 
	C331.853729,30.308371 331.822510,35.331387 335.007874,39.591431 
	C339.434937,45.512161 345.355408,42.995972 351.214996,41.562210 
	C351.868134,43.431549 352.449707,45.095963 353.014832,46.713390 
	C345.833313,51.525631 335.538025,50.986122 329.378326,45.720486 
	C324.445038,41.503212 321.916840,31.289711 325.761932,23.739319 
	C328.491943,18.378473 332.880035,15.457168 338.743622,15.042861 
	C342.012177,14.811913 345.333191,15.323846 349.017395,15.671539 
z"/>
<path fill="#2F8879" opacity="1.000000" stroke="none" 
	d="
M124.136917,41.620144 
	C120.251076,32.048038 121.657425,23.763723 127.828659,18.484039 
	C133.133942,13.945197 143.512390,13.518008 151.014191,17.696798 
	C150.449158,19.446175 149.866043,21.251539 149.244446,23.176058 
	C143.105927,21.871347 137.035690,19.123863 132.512009,25.378574 
	C129.930786,28.947540 130.223587,36.064888 132.868759,39.537857 
	C137.385788,45.468479 143.201019,42.963959 149.188797,41.625355 
	C149.833145,43.509342 150.449600,45.311771 151.053802,47.078434 
	C140.101669,52.441788 130.483856,50.529835 124.136917,41.620144 
z"/>
<path fill="#38668D" opacity="1.000000" stroke="none" 
	d="
M73.829407,77.036964 
	C68.860962,76.499176 67.055237,79.311279 66.690720,83.167923 
	C66.365173,86.612244 66.622269,90.111626 66.622269,93.969627 
	C64.776482,94.105400 63.392483,94.207199 61.653313,94.335129 
	C61.653313,87.213089 61.653313,80.477806 61.653313,72.748634 
	C63.566425,73.384880 65.122063,73.902237 67.574448,74.717827 
	C73.483795,70.799850 75.554443,70.803268 81.247139,75.684624 
	C82.124596,75.015747 82.982292,74.255753 83.938133,73.650818 
	C89.441025,70.168121 94.961998,72.758049 95.359566,79.212959 
	C95.654411,83.999947 95.417580,88.819679 95.417580,94.017166 
	C93.781235,94.114830 92.394165,94.197624 90.369141,94.318489 
	C90.369141,89.985695 90.634209,86.018402 90.251320,82.114670 
	C90.074120,80.308105 88.633553,78.625458 87.765762,76.886635 
	C85.723129,78.231117 82.508453,79.180588 81.893188,81.006126 
	C80.772774,84.330482 81.197441,88.174881 80.971153,91.801903 
	C80.930595,92.451958 80.859711,93.100121 80.777649,94.036491 
	C79.281540,94.036491 77.869682,94.036491 75.977806,94.036491 
	C75.977806,90.146767 76.160797,86.352112 75.899437,82.588310 
	C75.771683,80.748604 74.816826,78.966324 73.829407,77.036964 
z"/>
<path fill="#36658C" opacity="1.000000" stroke="none" 
	d="
M306.892517,85.256943 
	C306.890503,88.352859 306.890503,90.998871 306.890503,94.021324 
	C305.245819,94.110443 303.842957,94.186447 302.176941,94.276718 
	C302.176941,87.168678 302.176941,80.420158 302.176941,72.711662 
	C304.258423,73.475258 305.980927,74.107162 307.914734,74.816597 
	C314.032410,70.747665 316.308167,70.886856 321.477936,75.909592 
	C322.508453,75.088425 323.467285,74.145638 324.585297,73.463974 
	C329.864410,70.245216 335.290497,72.905731 335.658691,79.080734 
	C335.944733,83.878029 335.715912,88.706024 335.715912,93.961212 
	C334.193512,94.073944 332.813721,94.176117 331.386169,94.281830 
	C331.195465,93.449669 331.001923,92.988487 330.997711,92.525574 
	C330.967468,89.200485 331.360565,85.812119 330.831055,82.572685 
	C330.499359,80.543686 328.797913,78.738609 327.711060,76.833061 
	C325.775879,78.334389 323.304535,79.495888 322.071075,81.441986 
	C321.039917,83.068878 321.376465,85.609207 321.256409,87.753372 
	C321.145538,89.732765 321.232758,91.723259 321.232758,94.013107 
	C319.567413,94.013107 318.169556,94.013107 316.679993,94.013107 
	C316.503204,93.417213 316.259827,92.969963 316.254486,92.519897 
	C316.213074,89.028793 316.500763,85.503540 316.092041,82.059425 
	C315.878387,80.259171 314.465454,78.601257 313.594177,76.879059 
	C311.637360,78.073189 309.417786,79.000847 307.828583,80.567795 
	C306.964264,81.420029 307.170929,83.358498 306.892517,85.256943 
z"/>
<path fill="#2F8878" opacity="1.000000" stroke="none" 
	d="
M210.162781,25.048038 
	C208.507584,28.521267 206.893188,31.701353 205.934845,35.068172 
	C205.364639,37.071335 205.824585,39.368191 205.824280,41.533009 
	C205.823166,49.690594 205.823608,49.690594 197.250702,48.949570 
	C197.250702,37.927166 197.250702,26.877146 197.250702,15.553434 
	C199.845398,15.553434 202.252289,15.553434 204.791748,15.553434 
	C204.977875,17.369987 205.141312,18.965118 205.254623,20.071192 
	C210.140106,18.029436 215.011688,15.993489 220.660400,13.632758 
	C220.660400,17.163630 220.660400,19.245140 220.660400,20.930361 
	C217.137009,22.281147 213.808289,23.557301 210.162781,25.048038 
z"/>
<path fill="#32897A" opacity="1.000000" stroke="none" 
	d="
M306.192902,39.949760 
	C306.192932,31.663124 306.192932,23.870279 306.192932,15.675522 
	C309.246704,15.675522 311.973572,15.675522 315.108612,15.675522 
	C315.108612,26.643953 315.108612,37.678211 315.108612,48.984062 
	C312.275848,48.984062 309.528809,48.984062 306.192871,48.984062 
	C306.192871,46.001656 306.192871,43.222603 306.192902,39.949760 
z"/>
<path fill="#37658D" opacity="1.000000" stroke="none" 
	d="
M105.733574,91.181236 
	C101.664101,84.474174 102.432129,78.304039 107.541870,74.405357 
	C111.923546,71.062180 115.651588,71.312424 120.704849,74.739876 
	C122.809158,73.909744 124.339485,73.306046 126.499535,72.453918 
	C126.499535,80.080162 126.499535,86.816116 126.499535,94.553612 
	C124.600258,94.005692 122.818474,93.491669 120.167206,92.726807 
	C114.245964,96.059723 111.298965,95.941345 105.733574,91.181236 
M116.127609,76.519058 
	C111.272476,76.085510 108.452957,78.432625 108.146149,83.143883 
	C107.905228,86.843414 109.999153,89.564445 113.691315,90.288429 
	C117.263313,90.988838 120.253609,89.737389 121.576057,86.020447 
	C123.056389,81.859741 121.452072,78.800545 116.127609,76.519058 
z"/>
<path fill="#36658C" opacity="1.000000" stroke="none" 
	d="
M276.502869,92.647095 
	C269.050537,84.555656 271.643799,74.825493 281.499939,72.519630 
	C287.681274,71.073509 292.640594,74.488770 294.174561,81.642380 
	C288.983429,83.497734 283.725616,85.376923 278.467804,87.256111 
	C278.412964,87.786285 278.358124,88.316467 278.303314,88.846642 
	C281.022491,89.179924 283.749390,89.461754 286.457947,89.866280 
	C288.019012,90.099426 289.550446,90.530914 290.957916,91.475540 
	C286.238190,95.673546 281.572937,95.391960 276.502869,92.647095 
M281.967987,82.569038 
	C284.231628,81.686363 286.495270,80.803696 288.758942,79.921028 
	C288.822235,79.319771 288.885529,78.718513 288.948853,78.117256 
	C286.427460,77.594337 283.746490,76.272980 281.422424,76.737450 
	C278.019226,77.417610 276.736664,80.362305 277.292969,84.124634 
	C278.780548,83.649727 280.014435,83.255798 281.967987,82.569038 
z"/>
<path fill="#37668D" opacity="1.000000" stroke="none" 
	d="
M52.665840,77.494690 
	C54.436474,80.300919 54.144253,81.909004 50.982765,82.825104 
	C46.697678,84.066772 42.514378,85.659721 38.034405,87.188316 
	C40.053886,91.452141 43.558086,89.447357 46.423866,89.758194 
	C47.900471,89.918365 49.324841,90.560066 51.719498,91.261467 
	C44.124714,96.226219 37.402157,95.382004 33.698887,90.090363 
	C30.386944,85.357887 31.392937,78.345459 35.888378,74.828148 
	C41.443729,70.481552 47.356155,71.323868 52.665840,77.494690 
M46.273254,80.865784 
	C48.682270,79.924973 48.550732,78.112724 46.610886,77.450294 
	C44.505230,76.731239 41.534203,76.420097 39.777443,77.412537 
	C38.071709,78.376152 37.427284,81.218437 36.316795,83.235725 
	C36.743061,83.481720 37.169331,83.727715 37.595600,83.973709 
	C40.236179,83.003860 42.876755,82.034019 46.273254,80.865784 
z"/>
<path fill="#36648C" opacity="1.000000" stroke="none" 
	d="
M220.868927,73.646416 
	C222.260178,73.286346 223.378571,73.202408 225.449814,73.046951 
	C222.900803,78.867363 220.617844,84.075104 218.339294,89.284775 
	C216.678055,93.083008 214.844315,96.818466 213.421005,100.704086 
	C212.283142,103.810478 210.581177,104.925400 206.820129,103.337433 
	C214.406967,95.786911 209.722382,88.782051 206.062851,81.676636 
	C204.703827,79.037949 203.518448,76.309830 201.933716,72.942131 
	C211.784286,73.160255 209.606796,82.787758 214.546738,86.942314 
	C216.563187,82.602386 218.579636,78.262466 220.868927,73.646416 
z"/>
<path fill="#35648C" opacity="1.000000" stroke="none" 
	d="
M232.023071,93.259445 
	C231.361115,92.178146 231.032211,91.274879 230.703308,90.371613 
	C231.638367,90.162140 232.597519,89.716248 233.501907,89.808289 
	C234.445038,89.904282 235.414215,90.959450 236.232117,90.813148 
	C237.844330,90.524773 239.359863,89.695862 240.915375,89.090515 
	C239.971161,87.967468 239.251343,86.360245 238.045609,85.801430 
	C231.187531,82.622948 229.409744,79.995811 231.715530,75.786926 
	C234.042130,71.540047 239.513535,70.983192 244.775848,74.469284 
	C244.884521,74.541283 244.901749,74.751312 245.546555,76.319374 
	C243.264587,76.202820 241.581436,75.902367 239.959351,76.100914 
	C238.627167,76.263977 237.367538,77.019974 236.075745,77.513161 
	C236.846130,78.615326 237.374023,80.224686 238.429977,80.729561 
	C242.442871,82.648232 247.594818,83.593613 245.514023,89.956917 
	C243.993408,94.607109 239.973404,95.559341 232.023071,93.259445 
z"/>
<path fill="#35648B" opacity="1.000000" stroke="none" 
	d="
M186.074585,72.863075 
	C189.683884,72.934593 192.932571,73.155861 196.181274,73.377129 
	C196.136658,74.290993 196.092026,75.204857 196.047409,76.118721 
	C194.575699,76.118721 193.079727,75.953072 191.638962,76.164192 
	C190.125458,76.385979 188.664825,76.968636 187.181091,77.393600 
	C188.053314,78.575539 188.669174,80.265541 189.839752,80.856255 
	C196.988297,84.463577 198.570267,86.897331 196.077774,91.203362 
	C193.546005,95.577271 187.420425,95.921585 180.101944,90.959137 
	C182.653641,90.476082 183.905930,90.015518 185.136414,90.067833 
	C186.411942,90.122070 187.716629,91.053444 188.915131,90.894882 
	C190.004623,90.750732 191.558228,89.823242 191.807816,88.932892 
	C192.020782,88.173126 190.830139,86.796761 189.963303,86.028221 
	C189.272888,85.416107 188.110260,85.364952 187.198563,84.969536 
	C180.679398,82.142029 180.129684,77.664825 186.074585,72.863075 
z"/>
<path fill="#34638B" opacity="1.000000" stroke="none" 
	d="
M155.840332,88.712891 
	C155.840195,90.652397 155.840195,92.128708 155.840195,93.993767 
	C154.215485,94.094086 152.820633,94.180214 151.146576,94.283577 
	C151.146576,81.074745 151.146576,68.234848 151.146576,55.231972 
	C152.694809,55.231972 154.065033,55.231972 155.840454,55.231972 
	C155.840454,66.431610 155.840454,77.340652 155.840332,88.712891 
z"/>
<path fill="#306088" opacity="1.000000" stroke="none" 
	d="
M256.053772,68.941917 
	C256.053772,67.189400 256.053772,65.885094 256.053772,64.289299 
	C257.774445,64.289299 259.159882,64.289299 260.982880,64.289299 
	C260.982880,67.128624 260.982880,69.893417 260.982880,72.274193 
	C263.042114,74.016251 267.830414,71.315346 266.570465,76.767204 
	C264.851776,76.910248 263.223297,77.045784 261.182678,77.215622 
	C261.182678,82.615585 261.182678,88.050293 261.182678,93.870934 
	C259.433899,94.016312 258.058655,94.130638 256.223297,94.283211 
	C256.223297,88.494820 256.223297,83.060257 256.223297,78.246048 
	C254.487427,76.980133 253.327972,76.134583 252.168518,75.289032 
	C253.162430,74.507278 254.410629,73.895004 255.077209,72.895035 
	C255.716553,71.935928 255.752640,70.574677 256.053772,68.941917 
z"/>
<path fill="#37658C" opacity="1.000000" stroke="none" 
	d="
M136.605377,73.719254 
	C138.137451,73.300064 139.399612,73.239334 140.897217,73.167282 
	C140.897217,80.271263 140.897217,87.005951 140.897217,94.031563 
	C139.448166,94.031563 138.054840,94.031563 136.335464,94.031563 
	C136.335464,87.222824 136.335464,80.650269 136.605377,73.719254 
z"/>
<path fill="#416D92" opacity="1.000000" stroke="none" 
	d="
M140.970001,63.884502 
	C140.412811,65.486687 139.589401,66.814331 138.765991,68.141983 
	C137.862717,67.190895 136.959457,66.239807 136.056183,65.288719 
	C137.605377,64.729134 139.154587,64.169548 140.970001,63.884502 
z"/>
<path fill="#F7FBFA" opacity="1.000000" stroke="none" 
	d="
M171.992035,33.702244 
	C174.477768,33.391083 176.562973,33.172909 178.645248,32.955044 
	C179.052170,39.072422 177.391068,42.158096 172.617157,42.935120 
	C170.648315,43.255569 168.386017,41.773014 166.257202,41.110523 
	C167.108536,39.009201 167.802612,36.820004 168.899948,34.856144 
	C169.264008,34.204609 170.664749,34.132339 171.992035,33.702244 
z"/>
<path fill="#F7FAFA" opacity="1.000000" stroke="none" 
	d="
M106.194962,34.879608 
	C106.091644,40.337673 103.083664,42.796989 98.500862,43.280544 
	C97.027428,43.436008 94.738449,42.590916 94.035095,41.453663 
	C93.308662,40.279102 93.521118,37.890789 94.266907,36.564213 
	C96.090416,33.320671 103.039474,32.297081 106.194962,34.879608 
z"/>
<path fill="#FBFDFD" opacity="1.000000" stroke="none" 
	d="
M235.543137,40.256790 
	C234.840347,36.060757 233.939758,32.169678 234.083145,28.317457 
	C234.238831,24.134832 237.212296,21.809006 241.327347,21.605370 
	C245.403427,21.403662 248.477036,23.213564 249.206985,27.507124 
	C249.671280,30.238024 250.113861,33.151577 249.654419,35.826641 
	C248.333130,43.520008 241.893097,45.613159 235.543137,40.256790 
z"/>
<path fill="#F8FAFB" opacity="1.000000" stroke="none" 
	d="
M116.496307,76.610504 
	C121.452072,78.800545 123.056389,81.859741 121.576057,86.020447 
	C120.253609,89.737389 117.263313,90.988838 113.691315,90.288429 
	C109.999153,89.564445 107.905228,86.843414 108.146149,83.143883 
	C108.452957,78.432625 111.272476,76.085510 116.496307,76.610504 
z"/>
<path fill="#F0F3F6" opacity="1.000000" stroke="none" 
	d="
M281.608154,82.715454 
	C280.014435,83.255798 278.780548,83.649727 277.292969,84.124634 
	C276.736664,80.362305 278.019226,77.417610 281.422424,76.737450 
	C283.746490,76.272980 286.427460,77.594337 288.948853,78.117256 
	C288.885529,78.718513 288.822235,79.319771 288.758942,79.921028 
	C286.495270,80.803696 284.231628,81.686363 281.608154,82.715454 
z"/>
<path fill="#F3F6F8" opacity="1.000000" stroke="none" 
	d="
M45.895294,80.964981 
	C42.876755,82.034019 40.236179,83.003860 37.595600,83.973709 
	C37.169331,83.727715 36.743061,83.481720 36.316795,83.235725 
	C37.427284,81.218437 38.071709,78.376152 39.777443,77.412537 
	C41.534203,76.420097 44.505230,76.731239 46.610886,77.450294 
	C48.550732,78.112724 48.682270,79.924973 45.895294,80.964981 
z"/>
</svg>